<svg width="387" height="57" viewBox="0 0 387 57" fill="none" xmlns="http://www.w3.org/2000/svg">
<path fill-rule="evenodd" clip-rule="evenodd" d="M338 56.6883L356.221 0H368.369L386.59 56.6883H374.443L370.393 44.5408H354.197L350.148 56.6883H338ZM362.255 20.2646L366.972 34.2738H357.539L362.255 20.2646Z" fill="white"/>
<path d="M0 0V56.6883H12.1475V18.2213L22.2704 56.6883H34.4179L44.5408 18.2213V56.6883H56.6883V0H36.4425L28.3442 30.3688L20.2458 0H0Z" fill="white"/>
<rect x="72" width="16.1967" height="56.6883" fill="white"/>
<path fill-rule="evenodd" clip-rule="evenodd" d="M219 0H233V0.000253192L254 31.4986V0H268V56.6883H254.001V56.6884L254.001 56.6883H254V56.6862L233 24.5002V56.6883H219V0ZM233 15.2784L233 10.1231L233 6.34027V15.2784Z" fill="white"/>
<path fill-rule="evenodd" clip-rule="evenodd" d="M281 0H295V0.000253192L316 31.4986V0H330V56.6883H316.001V56.6884L316.001 56.6883H316V56.6862L295 24.5002V56.6883H281V0ZM295 15.2784L295 10.1231L295 6.34027V15.2784Z" fill="white"/>
<path fill-rule="evenodd" clip-rule="evenodd" d="M181 0H165V56.6883H181V56.6914H207V45H181.197V34.4178H201.442V22.2703H181.197V12L207 12V0H181.197H181Z" fill="white"/>
<path fill-rule="evenodd" clip-rule="evenodd" d="M104 0H119.263V22.1324L135.459 22.1324L135.459 34.2737H119.263V56.6883H104V0ZM135.459 0H150.722V56.6883H135.459V0Z" fill="white"/>
</svg>
